# xmcd
#
# Track frame offsets:
# 150
# 13035
# 24015
#
# Disc length: 435 seconds
#
# Revision: 0
# Processed by: cddbd v1.4PL0 Copyright (c) Steve Scherf et al.
# Submitted via: Audion 3.0.2 (http://www.panic.com/audion/)
#
DISCID=1201b103
DTITLE=g - g
DYEAR=1900
DGENRE=
TTITLE0=b
TTITLE1=b
TTITLE2=b
EXTD=
EXTT0=
EXTT1=
EXTT2=
PLAYORDER=
